<svg width="14" height="14" viewBox="0 0 14 14" fill="none" xmlns="http://www.w3.org/2000/svg">
<path d="M7.81789 4.13958C7.71534 4.13997 7.61372 4.12008 7.51888 4.08106C7.42404 4.04204 7.33785 3.98465 7.26526 3.9122C7.19268 3.83975 7.13513 3.75367 7.09593 3.6589C7.05673 3.56414 7.03665 3.46255 7.03684 3.36C7.03684 2.92895 7.38537 2.58042 7.81642 2.58042C8.24821 2.58042 8.596 2.92895 8.596 3.36C8.59749 3.46279 8.57834 3.56483 8.53969 3.66008C8.50104 3.75534 8.44367 3.84187 8.37098 3.91456C8.2983 3.98725 8.21176 4.04462 8.11651 4.08327C8.02125 4.12192 7.91921 4.14107 7.81642 4.13958H7.81789ZM8.25632 5.72084L7.37063 10.5567C7.36204 10.6014 7.36446 10.6475 7.37769 10.691C7.39091 10.7345 7.41454 10.7742 7.44653 10.8065C7.51766 10.8752 7.61289 10.9133 7.71179 10.9126C7.83263 10.9126 7.93874 11.0033 7.93874 11.1094C7.93874 11.2155 7.84 11.3061 7.71105 11.3061H6.70526C6.44074 11.3061 6.19832 11.2074 6.02442 11.0261C5.94321 10.9433 5.88247 10.8427 5.84703 10.7323C5.8116 10.6219 5.80245 10.5048 5.82032 10.3902L6.70453 5.56316C6.71334 5.51844 6.7111 5.47224 6.698 5.42858C6.6849 5.38492 6.66134 5.34512 6.62937 5.31263C6.55812 5.24419 6.4629 5.20637 6.36411 5.20726C6.24326 5.20726 6.13716 5.11663 6.13716 5.01053C6.13716 4.90442 6.23589 4.81379 6.36411 4.81379H7.37063C7.63589 4.81379 7.87758 4.91179 8.05221 5.09379C8.13319 5.17502 8.19388 5.2742 8.22934 5.38328C8.2648 5.49235 8.27404 5.60826 8.25632 5.72158V5.72084ZM7 14C3.14042 14 0 10.8596 0 7C0 3.14042 3.14042 0 7 0C10.8596 0 14 3.14042 14 7C14 10.8596 10.8596 14 7 14ZM7 0.756737C3.55674 0.756737 0.756737 3.55674 0.756737 7C0.756737 10.4433 3.55674 13.2433 7 13.2433C10.4433 13.2433 13.2433 10.4433 13.2433 7C13.2433 3.55674 10.4433 0.756737 7 0.756737Z" fill="#B9B4B8"/>
</svg>
